<svg id="katman_1" data-name="katman 1" xmlns="http://www.w3.org/2000/svg" viewBox="0 0 1177.56 1446.23"><defs><style>.cls-1{fill:#fff;}</style></defs><title>laptop_apple</title><path class="cls-1" d="M2048.05,1346.58c2,218.84,192,291.67,194.07,292.61-1.62,5.12-30.36,103.8-100.1,205.72-60.25,88.11-122.85,175.89-221.4,177.71-96.87,1.82-128-57.42-238.7-57.42s-145.27,55.6-237,59.24c-95.11,3.63-167.55-95.25-228.33-183-124.13-179.67-219-507.42-91.62-728.75,63.28-109.86,176.44-179.47,299.22-181.28,93.43-1.75,181.55,62.87,238.7,62.87s164.18-77.75,276.86-66.31c47.12,2,179.53,19,264.49,143.45-6.8,4.24-157.93,92.22-156.24,275.19M1866,809.2c50.48-61.12,84.48-146.21,75.19-230.89-72.77,2.89-160.82,48.53-213,109.59-46.79,54.12-87.78,140.69-76.74,223.69,81.18,6.26,164.11-41.27,214.6-102.39" transform="translate(-1064.55 -578.31)"/></svg>